<svg xmlns="http://www.w3.org/2000/svg" viewBox="0 0 200 200" role="img" aria-label="Star Dance Patín Artístico">
  <defs>
    <linearGradient id="gold" x1="0" y1="0" x2="0" y2="1">
      <stop offset="0" stop-color="#f6e27a"/>
      <stop offset="0.5" stop-color="#d4af37"/>
      <stop offset="1" stop-color="#b8901f"/>
    </linearGradient>
  </defs>
  <circle cx="100" cy="100" r="96" fill="#3a1d55"/>
  <circle cx="100" cy="100" r="96" fill="none" stroke="url(#gold)" stroke-width="3"/>
  <!-- Estrella de 5 puntas -->
  <path fill="url(#gold)" d="M100 18 L122 74 L182 78 L136 116 L150 176 L100 142 L50 176 L64 116 L18 78 L78 74 Z" opacity="0.95"/>
  <!-- Silueta de patinadora en el centro -->
  <g fill="#3a1d55">
    <circle cx="100" cy="70" r="8"/>
    <path d="M100 80
             C 96 92, 92 104, 86 116
             L 74 140 L 82 144 L 96 118
             C 98 128, 100 136, 108 150
             L 118 168 L 126 162 L 112 140
             C 108 122, 108 108, 106 96
             C 118 100, 130 96, 138 86
             L 132 78 C 124 86, 114 88, 106 84
             C 104 82, 102 80, 100 80 Z"/>
  </g>
  <text x="100" y="196" text-anchor="middle" font-family="Georgia, serif" font-size="9" fill="url(#gold)" letter-spacing="2">STAR DANCE</text>
</svg>
